<mxfile host="Electron" modified="2024-07-09T01:56:26.878Z" agent="Mozilla/5.0 (Windows NT 10.0; Win64; x64) AppleWebKit/537.36 (KHTML, like Gecko) draw.io/22.0.2 Chrome/114.0.5735.289 Electron/25.8.4 Safari/537.36" etag="DldG0TBHfevif20kQpsW" version="22.0.2" type="device">
  <diagram name="ページ1" id="NKPZZOQx5-XQ6p6UbQd2">
    <mxGraphModel dx="2469" dy="1589" grid="1" gridSize="10" guides="1" tooltips="1" connect="1" arrows="1" fold="1" page="1" pageScale="1" pageWidth="827" pageHeight="1169" math="0" shadow="0">
      <root>
        <mxCell id="0" />
        <mxCell id="1" parent="0" />
        <mxCell id="0mSqBatTHCEcBpTO_uF6-18" value="lesson6-1" style="rounded=0;whiteSpace=wrap;html=1;" parent="1" vertex="1">
          <mxGeometry x="10" y="240" width="120" height="60" as="geometry" />
        </mxCell>
        <mxCell id="aP6pm0OyYkuhKLj-Sk2u-1" value="クラス名：マネージャ" style="rounded=0;whiteSpace=wrap;html=1;align=left;" parent="1" vertex="1">
          <mxGeometry x="120" y="410" width="240" height="30" as="geometry" />
        </mxCell>
        <mxCell id="aP6pm0OyYkuhKLj-Sk2u-2" value="責務" style="rounded=0;whiteSpace=wrap;html=1;align=left;" parent="1" vertex="1">
          <mxGeometry x="120" y="440" width="120" height="30" as="geometry" />
        </mxCell>
        <mxCell id="aP6pm0OyYkuhKLj-Sk2u-3" value="協力者" style="rounded=0;whiteSpace=wrap;html=1;align=left;" parent="1" vertex="1">
          <mxGeometry x="240" y="440" width="120" height="30" as="geometry" />
        </mxCell>
        <mxCell id="aP6pm0OyYkuhKLj-Sk2u-4" value="開発する" style="rounded=0;whiteSpace=wrap;html=1;align=left;" parent="1" vertex="1">
          <mxGeometry x="120" y="470" width="120" height="50" as="geometry" />
        </mxCell>
        <mxCell id="aP6pm0OyYkuhKLj-Sk2u-5" value="デザイナ&lt;br&gt;プログラマ" style="rounded=0;whiteSpace=wrap;html=1;align=left;" parent="1" vertex="1">
          <mxGeometry x="240" y="470" width="120" height="50" as="geometry" />
        </mxCell>
        <mxCell id="aP6pm0OyYkuhKLj-Sk2u-6" value="" style="rounded=0;whiteSpace=wrap;html=1;" parent="1" vertex="1">
          <mxGeometry x="120" y="520" width="120" height="30" as="geometry" />
        </mxCell>
        <mxCell id="aP6pm0OyYkuhKLj-Sk2u-7" value="" style="rounded=0;whiteSpace=wrap;html=1;" parent="1" vertex="1">
          <mxGeometry x="240" y="520" width="120" height="30" as="geometry" />
        </mxCell>
        <mxCell id="aP6pm0OyYkuhKLj-Sk2u-8" value="クラス名：デザイナ" style="rounded=0;whiteSpace=wrap;html=1;align=left;" parent="1" vertex="1">
          <mxGeometry x="450" y="320" width="240" height="30" as="geometry" />
        </mxCell>
        <mxCell id="aP6pm0OyYkuhKLj-Sk2u-9" value="責務" style="rounded=0;whiteSpace=wrap;html=1;align=left;" parent="1" vertex="1">
          <mxGeometry x="450" y="350" width="120" height="30" as="geometry" />
        </mxCell>
        <mxCell id="aP6pm0OyYkuhKLj-Sk2u-10" value="協力者" style="rounded=0;whiteSpace=wrap;html=1;align=left;" parent="1" vertex="1">
          <mxGeometry x="570" y="350" width="120" height="30" as="geometry" />
        </mxCell>
        <mxCell id="aP6pm0OyYkuhKLj-Sk2u-11" value="設計する" style="rounded=0;whiteSpace=wrap;html=1;align=left;" parent="1" vertex="1">
          <mxGeometry x="450" y="380" width="120" height="30" as="geometry" />
        </mxCell>
        <mxCell id="aP6pm0OyYkuhKLj-Sk2u-12" value="" style="rounded=0;whiteSpace=wrap;html=1;" parent="1" vertex="1">
          <mxGeometry x="570" y="380" width="120" height="30" as="geometry" />
        </mxCell>
        <mxCell id="aP6pm0OyYkuhKLj-Sk2u-13" value="" style="rounded=0;whiteSpace=wrap;html=1;" parent="1" vertex="1">
          <mxGeometry x="450" y="410" width="120" height="30" as="geometry" />
        </mxCell>
        <mxCell id="aP6pm0OyYkuhKLj-Sk2u-14" value="" style="rounded=0;whiteSpace=wrap;html=1;" parent="1" vertex="1">
          <mxGeometry x="570" y="410" width="120" height="30" as="geometry" />
        </mxCell>
        <mxCell id="aP6pm0OyYkuhKLj-Sk2u-22" value="クラス名：プログラマ" style="rounded=0;whiteSpace=wrap;html=1;" parent="1" vertex="1">
          <mxGeometry x="450" y="530" width="250" height="30" as="geometry" />
        </mxCell>
        <mxCell id="aP6pm0OyYkuhKLj-Sk2u-23" value="責務" style="rounded=0;whiteSpace=wrap;html=1;align=left;" parent="1" vertex="1">
          <mxGeometry x="450" y="560" width="130" height="30" as="geometry" />
        </mxCell>
        <mxCell id="aP6pm0OyYkuhKLj-Sk2u-24" value="協力者" style="rounded=0;whiteSpace=wrap;html=1;align=left;" parent="1" vertex="1">
          <mxGeometry x="580" y="560" width="120" height="30" as="geometry" />
        </mxCell>
        <mxCell id="aP6pm0OyYkuhKLj-Sk2u-25" value="プログラムを作成する" style="rounded=0;whiteSpace=wrap;html=1;align=left;" parent="1" vertex="1">
          <mxGeometry x="450" y="590" width="130" height="30" as="geometry" />
        </mxCell>
        <mxCell id="aP6pm0OyYkuhKLj-Sk2u-26" value="" style="rounded=0;whiteSpace=wrap;html=1;" parent="1" vertex="1">
          <mxGeometry x="580" y="590" width="120" height="30" as="geometry" />
        </mxCell>
        <mxCell id="aP6pm0OyYkuhKLj-Sk2u-27" value="" style="rounded=0;whiteSpace=wrap;html=1;" parent="1" vertex="1">
          <mxGeometry x="450" y="620" width="140" height="30" as="geometry" />
        </mxCell>
        <mxCell id="aP6pm0OyYkuhKLj-Sk2u-28" value="" style="rounded=0;whiteSpace=wrap;html=1;" parent="1" vertex="1">
          <mxGeometry x="580" y="620" width="120" height="30" as="geometry" />
        </mxCell>
        <mxCell id="aP6pm0OyYkuhKLj-Sk2u-29" value="" style="ellipse;whiteSpace=wrap;html=1;fillColor=none;strokeColor=#66B2FF;" parent="1" vertex="1">
          <mxGeometry x="440" y="380" width="70" height="30" as="geometry" />
        </mxCell>
        <mxCell id="aP6pm0OyYkuhKLj-Sk2u-30" value="" style="ellipse;whiteSpace=wrap;html=1;fillColor=none;strokeColor=#66B2FF;" parent="1" vertex="1">
          <mxGeometry x="440" y="590" width="150" height="30" as="geometry" />
        </mxCell>
        <mxCell id="aP6pm0OyYkuhKLj-Sk2u-31" value="" style="endArrow=classic;html=1;rounded=0;entryX=-0.043;entryY=0.767;entryDx=0;entryDy=0;entryPerimeter=0;" parent="1" target="aP6pm0OyYkuhKLj-Sk2u-29" edge="1">
          <mxGeometry width="50" height="50" relative="1" as="geometry">
            <mxPoint x="300" y="480" as="sourcePoint" />
            <mxPoint x="440" y="470" as="targetPoint" />
          </mxGeometry>
        </mxCell>
        <mxCell id="aP6pm0OyYkuhKLj-Sk2u-32" value="" style="endArrow=classic;html=1;rounded=0;" parent="1" edge="1">
          <mxGeometry width="50" height="50" relative="1" as="geometry">
            <mxPoint x="310" y="500" as="sourcePoint" />
            <mxPoint x="430" y="590" as="targetPoint" />
          </mxGeometry>
        </mxCell>
        <mxCell id="aP6pm0OyYkuhKLj-Sk2u-53" value="CRCカード" style="rounded=0;whiteSpace=wrap;html=1;" parent="1" vertex="1">
          <mxGeometry x="100" y="350" width="80" height="40" as="geometry" />
        </mxCell>
      </root>
    </mxGraphModel>
  </diagram>
</mxfile>
